Coordinates
version=1
nRows=38
nColumns=34
inDegrees=no

Units are S.I. units (second, meters, Newtons, ...)
If the header above contains a line with 'inDegrees', this indicates whether rotational values are in degrees (yes) or radians (no).

endheader
time	pelvis_tilt	pelvis_list	pelvis_rotation	pelvis_tx	pelvis_ty	pelvis_tz	hip_flexion_r	hip_adduction_r	hip_rotation_r	knee_angle_r	ankle_angle_r	subtalar_angle_r	mtp_angle_r	hip_flexion_l	hip_adduction_l	hip_rotation_l	knee_angle_l	ankle_angle_l	subtalar_angle_l	mtp_angle_l	lumbar_extension	lumbar_bending	lumbar_rotation	arm_flex_r	arm_add_r	arm_rot_r	elbow_flex_r	pro_sup_r	arm_flex_l	arm_add_l	arm_rot_l	elbow_flex_l	pro_sup_l
2.31	-0.173517	0.115975	-0.125943	-0.205582	1.19439	-0.543029	0.338887	-0.25041	-0.343492	0.198061	-0.72897	0.159947	-0.122536	0.284399	-0.0477332	-0.442946	0.0878102	-0.686471	0.187744	-0.119843	0.0908426	-0.043098	0.137517	2.602	-0.18127	0.799654	0.957615	1.56427	2.58209	-0.192471	0.813966	1.11758	1.43743
2.32	-0.167648	0.113292	-0.119468	-0.206943	1.20354	-0.542637	0.331094	-0.25115	-0.337351	0.209738	-0.723748	0.160706	-0.12253	0.283237	-0.0502804	-0.443531	0.0922475	-0.681601	0.180629	-0.119842	0.0854981	-0.0430382	0.129191	2.59019	-0.184691	0.796023	0.966844	1.57434	2.56449	-0.1946	0.815785	1.12835	1.43702
2.33	-0.161567	0.110693	-0.113836	-0.208389	1.21168	-0.542118	0.32226	-0.250762	-0.333234	0.216378	-0.719197	0.165232	-0.122524	0.281184	-0.0528532	-0.446505	0.0945742	-0.678048	0.174508	-0.11984	0.0792996	-0.0432845	0.120699	2.58071	-0.188037	0.795644	0.973881	1.58328	2.55037	-0.196981	0.822147	1.13782	1.43655
2.34	-0.155518	0.108288	-0.109445	-0.209931	1.21879	-0.54145	0.313006	-0.249296	-0.332373	0.218379	-0.715509	0.171909	-0.122518	0.27859	-0.0555906	-0.451922	0.0955175	-0.675897	0.168593	-0.119839	0.0724938	-0.0438413	0.112776	2.57413	-0.191431	0.799289	0.97852	1.59012	2.53976	-0.199713	0.832359	1.14629	1.43591
2.35	-0.149703	0.106224	-0.106555	-0.21157	1.22486	-0.540624	0.304034	-0.246997	-0.335219	0.216728	-0.712773	0.179045	-0.122512	0.275756	-0.0584779	-0.459423	0.095752	-0.675116	0.161984	-0.119838	0.0653486	-0.0447758	0.106047	2.57071	-0.195002	0.807188	0.980922	1.59427	2.53232	-0.202804	0.845237	1.1542	1.43477
2.36	-0.144301	0.104665	-0.105285	-0.213298	1.22985	-0.539648	0.296032	-0.244228	-0.341498	0.212721	-0.710997	0.185108	-0.122505	0.272928	-0.061375	-0.468423	0.0958004	-0.675539	0.153986	-0.119836	0.0581669	-0.0461994	0.100939	2.57028	-0.19886	0.818967	0.981578	1.59552	2.52741	-0.206157	0.859324	1.16195	1.4327
2.37	-0.139477	0.103754	-0.105627	-0.215102	1.23376	-0.538539	0.289599	-0.241359	-0.350307	0.207681	-0.710097	0.188915	-0.122499	0.270316	-0.0640776	-0.478274	0.0960064	-0.676885	0.1443	-0.119835	0.0512901	-0.0482233	0.0976526	2.57228	-0.203078	0.833708	0.981227	1.59403	2.52422	-0.209588	0.87311	1.16986	1.42934
2.38	-0.135397	0.103583	-0.107478	-0.216963	1.23659	-0.537321	0.28519	-0.238671	-0.360267	0.202712	-0.70989	0.189782	-0.122493	0.268114	-0.0663876	-0.488373	0.0965492	-0.678805	0.133083	-0.119834	0.0450856	-0.0509077	0.096175	2.57589	-0.207663	0.85011	0.980711	1.59024	2.5219	-0.212877	0.885221	1.17808	1.42458
2.39	-0.132221	0.104167	-0.110679	-0.218859	1.23832	-0.536019	0.283084	-0.236306	-0.369777	0.19856	-0.710101	0.187581	-0.122487	0.266498	-0.0681692	-0.498235	0.0974763	-0.680951	0.120913	-0.119832	0.0399133	-0.0542235	0.0963296	2.5801	-0.212556	0.866708	0.980825	1.58489	2.51959	-0.215815	0.894554	1.18665	1.41862
2.4	-0.130068	0.105437	-0.115044	-0.220771	1.23896	-0.53466	0.283363	-0.234257	-0.377335	0.195585	-0.710374	0.182725	-0.122481	0.265607	-0.0693783	-0.507529	0.0987423	-0.683033	0.108655	-0.119831	0.0360749	-0.0580399	0.0978409	2.58396	-0.217629	0.882139	0.982187	1.57882	2.5166	-0.218259	0.900346	1.19553	1.41194
2.41	-0.128987	0.107248	-0.12037	-0.222686	1.23852	-0.533266	0.28592	-0.232418	-0.381858	0.193825	-0.710323	0.176056	-0.122475	0.265506	-0.0700645	-0.516094	0.100252	-0.684844	0.097267	-0.119829	0.0337585	-0.0621372	0.100392	2.58673	-0.222715	0.895353	0.98515	1.57298	2.51239	-0.220167	0.902203	1.20466	1.40526
2.42	-0.128936	0.109406	-0.126454	-0.224589	1.23701	-0.531865	0.290469	-0.230634	-0.382889	0.193106	-0.709592	0.168656	-0.122469	0.266155	-0.0703533	-0.523927	0.101906	-0.686249	0.0875777	-0.119828	0.0329821	-0.0662415	0.103664	2.58794	-0.227637	0.905758	0.989788	1.56826	2.5066	-0.221601	0.900081	1.21404	1.39945
2.43	-0.129769	0.111707	-0.133089	-0.226483	1.23445	-0.53048	0.296579	-0.228761	-0.380649	0.19316	-0.707929	0.161641	-0.122463	0.267408	-0.0704142	-0.531136	0.103637	-0.687184	0.0800655	-0.119827	0.0335802	-0.0700767	0.107365	2.58746	-0.232261	0.913269	0.995963	1.56519	2.49912	-0.222702	0.89425	1.2237	1.39527
2.44	-0.131242	0.113956	-0.140069	-0.22836	1.23086	-0.52913	0.303713	-0.226706	-0.375912	0.193713	-0.705262	0.155969	-0.122457	0.269021	-0.0704241	-0.537877	0.105448	-0.687651	0.0747164	-0.119825	0.0352224	-0.0734201	0.111245	2.58543	-0.236536	0.918256	1.00342	1.56386	2.48995	-0.223647	0.88521	1.23375	1.39327
2.45	-0.133027	0.115995	-0.147202	-0.23022	1.22626	-0.527824	0.311279	-0.224444	-0.369786	0.194548	-0.701742	0.152302	-0.122451	0.270682	-0.0705367	-0.544266	0.107417	-0.687744	0.0710126	-0.119824	0.037457	-0.0761397	0.115099	2.58221	-0.24051	0.921396	1.01189	1.56392	2.47926	-0.224614	0.873592	1.24437	1.39373
2.46	-0.134745	0.117712	-0.154313	-0.232059	1.2207	-0.526567	0.318678	-0.222021	-0.363425	0.195544	-0.697767	0.150923	-0.122445	0.272046	-0.0708607	-0.550311	0.109707	-0.687663	0.0680658	-0.119823	0.0397661	-0.0782079	0.11876	2.57822	-0.244332	0.9235	1.02115	1.56474	2.46725	-0.225759	0.860072	1.25571	1.39669
2.47	-0.135999	0.119046	-0.161249	-0.233874	1.21421	-0.525362	0.325344	-0.21953	-0.357746	0.196666	-0.693961	0.151688	-0.122439	0.272771	-0.0714504	-0.55585	0.112548	-0.687727	0.0648553	-0.119821	0.0416266	-0.0796947	0.122084	2.57383	-0.248231	0.92535	1.03111	1.56554	2.45414	-0.227213	0.845294	1.26794	1.40197
2.48	-0.136414	0.119982	-0.167876	-0.23566	1.20681	-0.524208	0.330779	-0.21709	-0.353207	0.197954	-0.691106	0.154013	-0.122433	0.272569	-0.0723035	-0.560539	0.116225	-0.688355	0.0604992	-0.11982	0.0425665	-0.0807461	0.124936	2.56935	-0.252487	0.927592	1.04185	1.56547	2.44011	-0.229093	0.829837	1.28121	1.40919
2.49	-0.135678	0.12055	-0.174068	-0.23741	1.19854	-0.5231	0.334587	-0.214822	-0.349708	0.199511	-0.690004	0.156957	-0.122427	0.271244	-0.0733629	-0.563859	0.121064	-0.690014	0.0544737	-0.119818	0.0422116	-0.0815576	0.127166	2.5649	-0.257397	0.930677	1.05357	1.5637	2.42531	-0.231527	0.814211	1.29563	1.41786
2.5	-0.133576	0.120813	-0.179691	-0.239118	1.1894	-0.522031	0.33651	-0.212832	-0.346622	0.201502	-0.691288	0.159379	-0.122421	0.268738	-0.0745248	-0.565162	0.127427	-0.693114	0.0467167	-0.119817	0.0403282	-0.0823373	0.128605	2.56048	-0.263246	0.934863	1.06659	1.55952	2.40986	-0.234675	0.798869	1.31129	1.42743
2.51	-0.130008	0.120856	-0.184602	-0.240781	1.17942	-0.521005	0.336447	-0.21121	-0.342938	0.204184	-0.695175	0.160158	-0.122415	0.265143	-0.0756517	-0.563749	0.135701	-0.697832	0.0375885	-0.119816	0.0368302	-0.0832726	0.129061	2.55601	-0.270273	0.940254	1.08127	1.55248	2.39384	-0.238742	0.784217	1.32825	1.43738
2.52	-0.124983	0.120766	-0.188648	-0.242394	1.16859	-0.520031	0.334466	-0.210027	-0.337467	0.207936	-0.701196	0.158423	-0.122408	0.260707	-0.0765892	-0.558981	0.146317	-0.70391	0.0277152	-0.119814	0.0317687	-0.0845045	0.128347	2.55136	-0.278659	0.946849	1.09789	1.54253	2.37733	-0.243966	0.770622	1.34656	1.44732
2.53	-0.11862	0.12062	-0.191688	-0.24395	1.1569	-0.519115	0.330805	-0.209326	-0.32907	0.21332	-0.707923	0.153723	-0.122402	0.255811	-0.077194	-0.550413	0.159769	-0.710418	0.0177705	-0.119813	0.0253086	-0.0861051	0.126321	2.54644	-0.288523	0.95461	1.11664	1.5301	2.36039	-0.250591	0.758394	1.36623	1.45696
2.54	-0.111133	0.120461	-0.193623	-0.245451	1.14434	-0.518273	0.325878	-0.209111	-0.316858	0.221116	-0.71276	0.146121	-0.122396	0.250953	-0.0773725	-0.53791	0.176638	-0.715564	0.00825392	-0.119812	0.017703	-0.0880568	0.122935	2.54124	-0.299932	0.963505	1.13753	1.51613	2.34307	-0.258813	0.747754	1.38727	1.46614
2.55	-0.102821	0.120287	-0.194418	-0.246904	1.13089	-0.517519	0.320274	-0.209316	-0.300334	0.232352	-0.711892	0.136146	-0.12239	0.246724	-0.0771214	-0.521687	0.197611	-0.716611	-0.000689393	-0.11981	0.00926848	-0.0902299	0.118276	2.53582	-0.312914	0.973538	1.16042	1.50198	2.32535	-0.26874	0.738787	1.40964	1.47482
2.56	-0.0940553	0.120043	-0.194131	-0.248323	1.1165	-0.516868	0.314761	-0.209785	-0.279443	0.248264	-0.700488	0.124627	-0.122384	0.2438	-0.0765571	-0.50227	0.223472	-0.709966	-0.00936423	-0.119809	0.000369402	-0.0923713	0.112577	2.53031	-0.327472	0.984734	1.18506	1.48914	2.30717	-0.280365	0.731395	1.4333	1.4831
2.57	-0.0852627	0.119618	-0.192922	-0.249738	1.10113	-0.516336	0.310269	-0.210257	-0.254552	0.270187	-0.673244	0.112437	-0.122378	0.242917	-0.0759166	-0.480383	0.255041	-0.691507	-0.0184995	-0.119808	-0.00859314	-0.0941264	0.106201	2.52483	-0.343581	0.997096	1.21122	1.47868	2.28833	-0.293583	0.725269	1.45819	1.49125
2.58	-0.0769086	0.118865	-0.191039	-0.251175	1.08473	-0.515925	0.307847	-0.210388	-0.226399	0.299347	-0.625309	0.100269	-0.122372	0.24484	-0.0755273	-0.456835	0.293043	-0.657175	-0.0290841	-0.119806	-0.0171928	-0.0950908	0.0995924	2.51937	-0.361189	1.01051	1.23874	1.47103	2.26854	-0.308218	0.719912	1.48431	1.49977
2.59	-0.0694651	0.117631	-0.188795	-0.252737	1.06728	-0.515674	0.308577	-0.209786	-0.196022	0.336578	-0.553491	0.088476	-0.122366	0.250302	-0.0757567	-0.43242	0.337921	-0.603819	-0.0421046	-0.119805	-0.0249708	-0.0948959	0.0932034	2.51367	-0.380213	1.02465	1.26762	1.46601	2.24732	-0.324074	0.714702	1.51173	1.50925
2.6	-0.0634692	0.115787	-0.186541	-0.254484	1.04896	-0.51558	0.313437	-0.208077	-0.164662	0.382028	-0.457468	0.0770321	-0.12236	0.259903	-0.0769437	-0.407879	0.389613	-0.530153	-0.0582534	-0.119804	-0.0315206	-0.0933086	0.0874117	2.5071	-0.400552	1.03886	1.2981	1.46294	2.22407	-0.340967	0.708973	1.54057	1.52026
2.61	-0.0593363	0.113337	-0.184601	-0.256608	1.03031	-0.515595	0.323164	-0.204927	-0.133616	0.434958	-0.340473	0.0655964	-0.122354	0.274006	-0.0793748	-0.383893	0.447356	-0.437486	-0.0776926	-0.119802	-0.0364459	-0.0902263	0.0824535	2.49864	-0.422098	1.0521	1.33059	1.46102	2.19806	-0.358752	0.702107	1.57104	1.53319
2.62	-0.0573082	0.11026	-0.183264	-0.259088	1.0117	-0.51568	0.338127	-0.200073	-0.104061	0.493764	-0.209001	0.0536769	-0.122348	0.292627	-0.0832506	-0.361087	0.509643	-0.32981	-0.0999637	-0.119801	-0.0394987	-0.0857395	0.0784094	2.48691	-0.444723	1.06305	1.36565	1.45962	2.16844	-0.377345	0.693573	1.60344	1.54815
2.63	-0.0572598	0.106479	-0.182776	-0.2618	0.993425	-0.515766	0.358176	-0.193271	-0.07692	0.556213	-0.0715843	0.0408512	-0.122342	0.315319	-0.088732	-0.340001	0.574362	-0.213072	-0.124115	-0.119799	-0.0406715	-0.0799256	0.0752589	2.47039	-0.468257	1.07028	1.40385	1.45855	2.13428	-0.39671	0.682854	1.6381	1.56493
2.64	-0.0589093	0.101852	-0.183349	-0.264668	0.975678	-0.515811	0.382597	-0.18432	-0.0527655	0.619876	0.0628716	0.0268769	-0.122336	0.341112	-0.0959153	-0.321042	0.639118	-0.0939448	-0.148946	-0.119798	-0.0403369	-0.0728198	0.0729201	2.44764	-0.492481	1.07252	1.44566	1.45795	2.09457	-0.41684	0.669428	1.67535	1.58305
2.65	-0.0617015	0.0962045	-0.185137	-0.267699	0.958799	-0.5158	0.410237	-0.17307	-0.0317922	0.682539	0.186508	0.0116785	-0.122329	0.368622	-0.104806	-0.304447	0.70157	0.0213686	-0.173295	-0.119797	-0.0391676	-0.064408	0.0712807	2.41744	-0.517134	1.06877	1.49135	1.45819	2.04836	-0.437723	0.65278	1.71545	1.60187
2.66	-0.0648818	0.0893732	-0.188228	-0.270937	0.943199	-0.51574	0.439709	-0.159438	-0.0138778	0.742487	0.293323	-0.00472424	-0.122323	0.39626	-0.115307	-0.290272	0.759729	0.127927	-0.196269	-0.119795	-0.0380509	-0.0546567	0.0702185	2.37888	-0.541937	1.05835	1.54101	1.45972	1.99485	-0.459323	0.632431	1.75851	1.62074
2.67	-0.0676858	0.0812471	-0.192647	-0.274389	0.929271	-0.515649	0.469661	-0.143404	0.00126914	0.798598	0.379374	-0.02227	-0.122317	0.422502	-0.127238	-0.27843	0.812132	0.222354	-0.217335	-0.119794	-0.0379409	-0.0435453	0.0696151	2.33141	-0.566629	1.04089	1.59456	1.46291	1.93345	-0.481581	0.607986	1.80451	1.6391
2.68	-0.0694998	0.0716914	-0.198381	-0.278016	0.917309	-0.515529	0.49904	-0.125022	0.0139426	0.850267	0.442512	-0.0408833	-0.122311	0.446175	-0.140376	-0.268776	0.857875	0.302727	-0.236267	-0.119793	-0.0396273	-0.0311249	0.0693694	2.27472	-0.591008	1.01622	1.65188	1.46804	1.8638	-0.504429	0.579177	1.85339	1.65657
